<?xml version="1.0" encoding="utf-8"?>
<!-- Generator: Adobe Illustrator 18.0.0, SVG Export Plug-In . SVG Version: 6.00 Build 0)  -->
<!DOCTYPE svg PUBLIC "-//W3C//DTD SVG 1.1//EN" "http://www.w3.org/Graphics/SVG/1.1/DTD/svg11.dtd">
<svg version="1.1" id="Layer_1" xmlns="http://www.w3.org/2000/svg" xmlns:xlink="http://www.w3.org/1999/xlink" x="0px" y="0px"
	 viewBox="1020 355.6 70 15" enable-background="new 1020 355.6 70 15" xml:space="preserve">
<g>
	<polygon points="1022.7,355.8 1020,355.8 1020.6,358.3 1023.3,358.3 	"/>
	<rect x="1032.4" y="355.8" width="2.8" height="14.6"/>
	<polygon points="1045,364.5 1044.9,364.5 1041,355.8 1038,355.8 1038,370.4 1040.5,370.4 1040.5,361 1040.6,361 1044.9,370.4 
		1047.5,370.4 1047.5,355.8 1045,355.8 	"/>
	<polygon points="1058.7,355.8 1049.3,355.8 1049.3,358.3 1052.6,358.3 1052.6,370.4 1055.4,370.4 1055.4,358.3 1058.7,358.3 	"/>
	<path d="M1062.2,355.8l-3.6,14.6h2.7l0.8-3.1h3.9l0.7,3.1h2.7l-3.5-14.6H1062.2z M1062.6,364.9l1.4-5.9h0l1.4,5.9H1062.6z"/>
	<path d="M1075.2,358.1c1,0,1.7,0.6,1.7,2.5h2.8c-0.1-3.3-1.6-5-4.5-5c-2.7,0-4.6,1.3-4.6,4.9v5.2c0,3.6,1.9,4.9,4.6,4.9
		c1.1,0,1.9-0.6,2.6-1.4l0.4,1.2h1.5V363h-4.8v2.3h2v0.9c0,1.3-0.6,2-1.7,2c-1.1,0-1.8-0.4-1.8-2.1v-5.9
		C1073.4,358.5,1074.1,358.1,1075.2,358.1z"/>
	<polygon points="1084.9,368 1084.9,364.1 1088.6,364.1 1088.6,361.7 1084.9,361.7 1084.9,358.3 1089.8,358.3 1089.8,355.8 
		1082.1,355.8 1082.1,370.4 1090,370.4 1090,368 	"/>
	<polygon points="1028,355.8 1024.2,370.4 1026.9,370.4 1030.6,355.8 	"/>
</g>
</svg>
