<?xml version="1.0" encoding="utf-8"?>
<!-- Generator: Adobe Illustrator 18.0.0, SVG Export Plug-In . SVG Version: 6.00 Build 0)  -->
<!DOCTYPE svg PUBLIC "-//W3C//DTD SVG 1.1//EN" "http://www.w3.org/Graphics/SVG/1.1/DTD/svg11.dtd">
<svg version="1.1" id="Layer_1" xmlns="http://www.w3.org/2000/svg" xmlns:xlink="http://www.w3.org/1999/xlink" x="0px" y="0px"
	 viewBox="13 15 48 39" enable-background="new 13 15 48 39" xml:space="preserve">
<path fill="none" stroke="#000000" stroke-width="2" stroke-miterlimit="10" d="M21.4,45.1c-4.1,0-7.4-3.1-7.4-7s3.3-7,7.4-7h1.5v14
	H21.4z"/>
<path fill="none" stroke="#000000" stroke-width="2" stroke-miterlimit="10" d="M52.6,31.2c4.1,0,7.4,3.1,7.4,7s-3.3,7-7.4,7h-1.5
	v-14H52.6z"/>
<path fill="none" stroke="#000000" stroke-width="2" stroke-miterlimit="10" d="M22.9,33.3V27c0,0,0-11,14.1-11s14.1,11,14.1,11v4.2
	"/>
<polyline fill="none" stroke="#000000" stroke-width="2" stroke-miterlimit="10" points="51.1,45.1 51.1,48.6 40,53 34,53 34,50 
	40,50 40,52.1 "/>
</svg>
